<?xml version="1.0" encoding="UTF-8"?>
<svg id="Calque_1" data-name="Calque 1" xmlns="http://www.w3.org/2000/svg" viewBox="0 0 221.3 98.73">
  <defs>
    <style>
      .cls-1 {
        fill: #fff;
        stroke-width: 0px;
      }
    </style>
  </defs>
  <path class="cls-1" d="M87,76.62v-23.5c0-2.79-.75-6.5-5.58-6.5l19.32-9.01v39.02c0,1.95,1.21,6.23,5.76,7.06h-25.27c4.55-.84,5.76-5.11,5.76-7.06Z"/>
  <path class="cls-1" d="M104.5,43.27c2.23-2.51,6.04-5.67,11.61-5.67,7.43,0,16.35,5.11,16.35,17.65v21.37c0,1.95,1.21,6.23,5.76,7.06h-19.51v-29.82c0-3.9.56-14.3-6.69-14.3-3.16,0-5.86,2.6-7.53,4.46"/>
  <path class="cls-1" d="M176.99,40.29c6.04,2.97,9.94,8.27,9.94,14.21,0,9.48-9.57,17.1-21.46,17.1-7.24,0-13.75-2.88-17.56-7.34-1.39,1.49-2.97,3.81-2.97,6.69,0,2.04,1.12,6.69,7.71,6.69,6.97,0,16.17-5.76,24.71-5.76,5.48,0,11.52,2.88,11.52,10.13,0,9.29-11.98,16.72-27.96,16.72,18.39,0,22.85-13.84,17.37-13.84-4.92,0-12.45,5.2-23.04,5.2-9.94,0-13.75-6.13-13.75-13.84,0-4.74,2.6-9.66,5.95-12.54-2.14-2.69-3.34-5.85-3.34-9.2,0-9.29,9.57-16.91,21.37-16.91,4,0,7.81.93,10.97,2.42M165.47,71.05c3.35,0,7.53-5.11,7.53-16.63s-4.18-16.26-7.53-16.26-7.43,4.83-7.43,16.26,4.09,16.63,7.43,16.63Z"/>
  <path class="cls-1" d="M188.88,28.59c0-9.92,7.24-17.93,16.18-17.93s16.25,8.02,16.25,17.93-7.24,18.08-16.25,18.08-16.18-8.02-16.18-18.08ZM205.06,46.24c2.53,0,5.69-5.56,5.69-17.72s-3.16-17.44-5.69-17.44-5.63,5.28-5.63,17.44,3.1,17.72,5.63,17.72Z"/>
  <g>
    <path class="cls-1" d="M50.86,32.5c2.49,4.75,2.28,12.21,2.28,12.21,0,4.3-1.4,8.24-4.64,8.24-4,0-7.53-6.93-10.13-11.59L15.61,0H.84l5.95,10.76v62.28c0,2.87-1.4,9.32-6.78,10.64h14.12c-5.39-1.31-6.78-7.77-6.78-10.64V11.71l23.88,43.15c2.32,4.19,6.41,9.81,12.17,9.81,7.71,0,10.31-11.72,10.31-19.96,0-4.87-1.22-8.95-2.84-12.21Z"/>
    <path class="cls-1" d="M57.69,1.31v71.73c0,2.87-1.39,9.32-6.78,10.64h27.5c-5.39-1.31-6.78-7.77-6.78-10.64V10.64c0-2.87,1.39-9.32,6.78-10.64h-20.72"/>
  </g>
  <circle class="cls-1" cx="90.05" cy="28.66" r="6.91"/>
</svg>